<svg width="1200" height="900" viewBox="0 0 1200 900" fill="none" xmlns="http://www.w3.org/2000/svg">
  <defs>
    <linearGradient id="network-bg" x1="122" y1="120" x2="1080" y2="790" gradientUnits="userSpaceOnUse">
      <stop stop-color="#07111E"/>
      <stop offset="0.55" stop-color="#111A33"/>
      <stop offset="1" stop-color="#1C2844"/>
    </linearGradient>
    <radialGradient id="network-glow" cx="0" cy="0" r="1" gradientUnits="userSpaceOnUse" gradientTransform="translate(900 170) rotate(120) scale(340 340)">
      <stop stop-color="#79B8FF" stop-opacity="0.46"/>
      <stop offset="1" stop-color="#79B8FF" stop-opacity="0"/>
    </radialGradient>
  </defs>
  <rect width="1200" height="900" rx="48" fill="url(#network-bg)"/>
  <rect width="1200" height="900" rx="48" fill="url(#network-glow)"/>
  <rect x="238" y="160" width="724" height="578" rx="46" fill="rgba(255,255,255,0.05)" stroke="rgba(255,255,255,0.16)" stroke-width="2"/>
  <path d="M364 562L488 420L618 486L748 346L854 458" stroke="rgba(255,255,255,0.24)" stroke-width="6" stroke-linecap="round" stroke-linejoin="round"/>
  <circle cx="364" cy="562" r="22" fill="#F4F6FB"/>
  <circle cx="488" cy="420" r="22" fill="#7BE0C3"/>
  <circle cx="618" cy="486" r="22" fill="#F7D18A"/>
  <circle cx="748" cy="346" r="24" fill="#74B7FF"/>
  <circle cx="854" cy="458" r="24" fill="#F4F6FB"/>
  <rect x="334" y="236" width="176" height="118" rx="26" fill="rgba(255,255,255,0.08)"/>
  <rect x="554" y="228" width="146" height="84" rx="24" fill="rgba(255,255,255,0.08)"/>
  <rect x="758" y="216" width="140" height="110" rx="26" fill="rgba(255,255,255,0.08)"/>
  <rect x="336" y="646" width="162" height="22" rx="11" fill="rgba(255,255,255,0.62)"/>
  <rect x="528" y="646" width="152" height="22" rx="11" fill="rgba(255,255,255,0.26)"/>
  <rect x="708" y="646" width="182" height="22" rx="11" fill="rgba(255,255,255,0.62)"/>
  <path d="M424 354V562" stroke="rgba(255,255,255,0.16)" stroke-width="4"/>
  <path d="M618 312V486" stroke="rgba(255,255,255,0.16)" stroke-width="4"/>
  <path d="M828 330V458" stroke="rgba(255,255,255,0.16)" stroke-width="4"/>
</svg>
