<svg width="1200" height="900" viewBox="0 0 1200 900" fill="none" xmlns="http://www.w3.org/2000/svg">
  <defs>
    <linearGradient id="contact-bg" x1="120" y1="100" x2="1080" y2="800" gradientUnits="userSpaceOnUse">
      <stop stop-color="#08111F"/>
      <stop offset="0.58" stop-color="#111A30"/>
      <stop offset="1" stop-color="#1C2742"/>
    </linearGradient>
    <radialGradient id="contact-glow" cx="0" cy="0" r="1" gradientUnits="userSpaceOnUse" gradientTransform="translate(906 204) rotate(118) scale(320 300)">
      <stop stop-color="#76B7FF" stop-opacity="0.44"/>
      <stop offset="1" stop-color="#76B7FF" stop-opacity="0"/>
    </radialGradient>
  </defs>
  <rect width="1200" height="900" rx="48" fill="url(#contact-bg)"/>
  <rect width="1200" height="900" rx="48" fill="url(#contact-glow)"/>
  <rect x="220" y="148" width="760" height="604" rx="46" fill="rgba(255,255,255,0.05)" stroke="rgba(255,255,255,0.16)" stroke-width="2"/>
  <circle cx="600" cy="432" r="98" fill="#F4F6FB"/>
  <circle cx="600" cy="432" r="42" fill="#0F2142"/>
  <circle cx="394" cy="278" r="58" fill="rgba(255,255,255,0.1)"/>
  <circle cx="834" cy="300" r="58" fill="rgba(255,255,255,0.1)"/>
  <circle cx="398" cy="608" r="58" fill="rgba(255,255,255,0.1)"/>
  <circle cx="834" cy="602" r="58" fill="rgba(255,255,255,0.1)"/>
  <path d="M444 296L530 360" stroke="rgba(255,255,255,0.24)" stroke-width="6" stroke-linecap="round"/>
  <path d="M782 318L672 384" stroke="rgba(255,255,255,0.24)" stroke-width="6" stroke-linecap="round"/>
  <path d="M446 592L530 504" stroke="rgba(255,255,255,0.24)" stroke-width="6" stroke-linecap="round"/>
  <path d="M782 584L670 500" stroke="rgba(255,255,255,0.24)" stroke-width="6" stroke-linecap="round"/>
  <circle cx="394" cy="278" r="20" fill="#0A84FF"/>
  <circle cx="834" cy="300" r="20" fill="#7BE0C3"/>
  <circle cx="398" cy="608" r="20" fill="#F7D18A"/>
  <circle cx="834" cy="602" r="20" fill="#F4F6FB"/>
  <rect x="332" y="180" width="188" height="58" rx="22" fill="rgba(255,255,255,0.08)"/>
  <rect x="356" y="202" width="128" height="14" rx="7" fill="rgba(255,255,255,0.76)"/>
  <rect x="690" y="656" width="198" height="58" rx="22" fill="rgba(255,255,255,0.08)"/>
  <rect x="716" y="678" width="138" height="14" rx="7" fill="rgba(255,255,255,0.76)"/>
</svg>
